<svg width="1500" height="929" viewBox="0 0 1500 929" fill="none" xmlns="http://www.w3.org/2000/svg">
<g opacity="0.6">
<path d="M1.99988 41.143L-39.1431 0V30.857L-80.2861 61.714H-39.1431V82.286L1.99988 41.143Z" fill="#1755F4"/>
<path d="M63.143 0L22 41.143L63.143 82.286V51.429L104.286 20.571H63.143V0Z" fill="#1755F4"/>
<path d="M166 41.143L124.857 0V30.857L83.7139 61.714H124.857V82.286L166 41.143Z" fill="#1755F4"/>
<path d="M227.143 0L186 41.143L227.143 82.286V51.429L268.286 20.571H227.143V0Z" fill="#1755F4"/>
<path d="M330 41.143L288.857 0V30.857L247.714 61.714H288.857V82.286L330 41.143Z" fill="#1755F4"/>
<path d="M391.143 0L350 41.143L391.143 82.286V51.429L432.286 20.571H391.143V0Z" fill="#1755F4"/>
<path d="M494 41.143L452.86 0V30.857L411.714 61.714H452.86V82.286L494 41.143Z" fill="#1755F4"/>
<path d="M555.14 0L514 41.143L555.14 82.286V51.429L596.29 20.571H555.14V0Z" fill="#1755F4"/>
<path d="M658 41.143L616.86 0V30.857L575.71 61.714H616.86V82.286L658 41.143Z" fill="#1755F4"/>
<path d="M719.14 0L678 41.143L719.14 82.286V51.429L760.29 20.571H719.14V0Z" fill="#1755F4"/>
<path d="M822 41.143L780.86 0V30.857L739.71 61.714H780.86V82.286L822 41.143Z" fill="#1755F4"/>
<path d="M883.14 0L842 41.143L883.14 82.286V51.429L924.29 20.571H883.14V0Z" fill="#1755F4"/>
<path d="M986 41.143L944.86 0V30.857L903.71 61.714H944.86V82.286L986 41.143Z" fill="#1755F4"/>
<path d="M1047.14 0L1006 41.143L1047.14 82.286V51.429L1088.29 20.571H1047.14V0Z" fill="#1755F4"/>
<path d="M1150 41.143L1108.86 0V30.857L1067.71 61.714H1108.86V82.286L1150 41.143Z" fill="#1755F4"/>
<path d="M1211.14 0L1170 41.143L1211.14 82.286V51.429L1252.29 20.571H1211.14V0Z" fill="#1755F4"/>
<path d="M1314 41.143L1272.86 0V30.857L1231.71 61.714H1272.86V82.286L1314 41.143Z" fill="#1755F4"/>
<path d="M1375.14 0L1334 41.143L1375.14 82.286V51.429L1416.29 20.571H1375.14V0Z" fill="#1755F4"/>
<path d="M1478 41.143L1436.86 0V30.857L1395.71 61.714H1436.86V82.286L1478 41.143Z" fill="#1755F4"/>
<path d="M1539.14 0L1498 41.143L1539.14 82.286V51.429L1580.29 20.571H1539.14V0Z" fill="#1755F4"/>
<path d="M-18.857 94L-60 135.143L-18.857 176.286V145.429L22.286 114.571H-18.857V94Z" fill="#1755F4"/>
<path d="M83.9999 135.143L42.8569 94V124.857L1.71387 155.714H42.8569V176.286L83.9999 135.143Z" fill="#1755F4"/>
<path d="M145.143 94L104 135.143L145.143 176.286V145.429L186.286 114.571H145.143V94Z" fill="#1755F4"/>
<path d="M248 135.143L206.857 94V124.857L165.714 155.714H206.857V176.286L248 135.143Z" fill="#1755F4"/>
<path d="M309.143 94L268 135.143L309.143 176.286V145.429L350.286 114.571H309.143V94Z" fill="#1755F4"/>
<path d="M412 135.143L370.857 94V124.857L329.714 155.714H370.857V176.286L412 135.143Z" fill="#1755F4"/>
<path d="M473.14 94L432 135.143L473.14 176.286V145.429L514.29 114.571H473.14V94Z" fill="#1755F4"/>
<path d="M576 135.143L534.86 94V124.857L493.71 155.714H534.86V176.286L576 135.143Z" fill="#1755F4"/>
<path d="M637.14 94L596 135.143L637.14 176.286V145.429L678.29 114.571H637.14V94Z" fill="#1755F4"/>
<path d="M740 135.143L698.86 94V124.857L657.71 155.714H698.86V176.286L740 135.143Z" fill="#1755F4"/>
<path d="M801.14 94L760 135.143L801.14 176.286V145.429L842.29 114.571H801.14V94Z" fill="#1755F4"/>
<path d="M904 135.143L862.86 94V124.857L821.71 155.714H862.86V176.286L904 135.143Z" fill="#1755F4"/>
<path d="M965.14 94L924 135.143L965.14 176.286V145.429L1006.29 114.571H965.14V94Z" fill="#1755F4"/>
<path d="M1068 135.143L1026.86 94V124.857L985.71 155.714H1026.86V176.286L1068 135.143Z" fill="#1755F4"/>
<path d="M1129.14 94L1088 135.143L1129.14 176.286V145.429L1170.29 114.571H1129.14V94Z" fill="#1755F4"/>
<path d="M1232 135.143L1190.86 94V124.857L1149.71 155.714H1190.86V176.286L1232 135.143Z" fill="#1755F4"/>
<path d="M1293.14 94L1252 135.143L1293.14 176.286V145.429L1334.29 114.571H1293.14V94Z" fill="#1755F4"/>
<path d="M1396 135.143L1354.86 94V124.857L1313.71 155.714H1354.86V176.286L1396 135.143Z" fill="#1755F4"/>
<path d="M1457.14 94L1416 135.143L1457.14 176.286V145.429L1498.29 114.571H1457.14V94Z" fill="#1755F4"/>
<path d="M1560 135.143L1518.86 94V124.857L1477.71 155.714H1518.86V176.286L1560 135.143Z" fill="#1755F4"/>
<path d="M1.99988 229.143L-39.1431 188V218.857L-80.2861 249.714H-39.1431V270.286L1.99988 229.143Z" fill="#1755F4"/>
<path d="M63.143 188L22 229.143L63.143 270.286V239.429L104.286 208.571H63.143V188Z" fill="#1755F4"/>
<path d="M166 229.143L124.857 188V218.857L83.7139 249.714H124.857V270.286L166 229.143Z" fill="#1755F4"/>
<path d="M227.143 188L186 229.143L227.143 270.286V239.429L268.286 208.571H227.143V188Z" fill="#1755F4"/>
<path d="M330 229.143L288.857 188V218.857L247.714 249.714H288.857V270.286L330 229.143Z" fill="#1755F4"/>
<path d="M391.143 188L350 229.143L391.143 270.286V239.429L432.286 208.571H391.143V188Z" fill="#1755F4"/>
<path d="M494 229.143L452.86 188V218.857L411.714 249.714H452.86V270.286L494 229.143Z" fill="#1755F4"/>
<path d="M555.14 188L514 229.143L555.14 270.286V239.429L596.29 208.571H555.14V188Z" fill="#1755F4"/>
<path d="M658 229.143L616.86 188V218.857L575.71 249.714H616.86V270.286L658 229.143Z" fill="#1755F4"/>
<path d="M719.14 188L678 229.143L719.14 270.286V239.429L760.29 208.571H719.14V188Z" fill="#1755F4"/>
<path d="M822 229.143L780.86 188V218.857L739.71 249.714H780.86V270.286L822 229.143Z" fill="#1755F4"/>
<path d="M883.14 188L842 229.143L883.14 270.286V239.429L924.29 208.571H883.14V188Z" fill="#1755F4"/>
<path d="M986 229.143L944.86 188V218.857L903.71 249.714H944.86V270.286L986 229.143Z" fill="#1755F4"/>
<path d="M1047.14 188L1006 229.143L1047.14 270.286V239.429L1088.29 208.571H1047.14V188Z" fill="#1755F4"/>
<path d="M1150 229.143L1108.86 188V218.857L1067.71 249.714H1108.86V270.286L1150 229.143Z" fill="#1755F4"/>
<path d="M1211.14 188L1170 229.143L1211.14 270.286V239.429L1252.29 208.571H1211.14V188Z" fill="#1755F4"/>
<path d="M1314 229.143L1272.86 188V218.857L1231.71 249.714H1272.86V270.286L1314 229.143Z" fill="#1755F4"/>
<path d="M1375.14 188L1334 229.143L1375.14 270.286V239.429L1416.29 208.571H1375.14V188Z" fill="#1755F4"/>
<path d="M1478 229.143L1436.86 188V218.857L1395.71 249.714H1436.86V270.286L1478 229.143Z" fill="#1755F4"/>
<path d="M1539.14 188L1498 229.143L1539.14 270.286V239.429L1580.29 208.571H1539.14V188Z" fill="#1755F4"/>
<path d="M-18.857 282L-60 323.143L-18.857 364.286V333.429L22.286 302.571H-18.857V282Z" fill="#1755F4"/>
<path d="M83.9999 323.143L42.8569 282V312.857L1.71387 343.714H42.8569V364.286L83.9999 323.143Z" fill="#1755F4"/>
<path d="M145.143 282L104 323.143L145.143 364.286V333.429L186.286 302.571H145.143V282Z" fill="#1755F4"/>
<path d="M248 323.143L206.857 282V312.857L165.714 343.714H206.857V364.286L248 323.143Z" fill="#1755F4"/>
<path d="M309.143 282L268 323.143L309.143 364.286V333.429L350.286 302.571H309.143V282Z" fill="#1755F4"/>
<path d="M412 323.143L370.857 282V312.857L329.714 343.714H370.857V364.286L412 323.143Z" fill="#1755F4"/>
<path d="M473.14 282L432 323.143L473.14 364.286V333.429L514.29 302.571H473.14V282Z" fill="#1755F4"/>
<path d="M576 323.143L534.86 282V312.857L493.71 343.714H534.86V364.286L576 323.143Z" fill="#1755F4"/>
<path d="M637.14 282L596 323.143L637.14 364.286V333.429L678.29 302.571H637.14V282Z" fill="#1755F4"/>
<path d="M740 323.143L698.86 282V312.857L657.71 343.714H698.86V364.286L740 323.143Z" fill="#1755F4"/>
<path d="M801.14 282L760 323.143L801.14 364.286V333.429L842.29 302.571H801.14V282Z" fill="#1755F4"/>
<path d="M904 323.143L862.86 282V312.857L821.71 343.714H862.86V364.286L904 323.143Z" fill="#1755F4"/>
<path d="M965.14 282L924 323.143L965.14 364.286V333.429L1006.29 302.571H965.14V282Z" fill="#1755F4"/>
<path d="M1068 323.143L1026.86 282V312.857L985.71 343.714H1026.86V364.286L1068 323.143Z" fill="#1755F4"/>
<path d="M1129.14 282L1088 323.143L1129.14 364.286V333.429L1170.29 302.571H1129.14V282Z" fill="#1755F4"/>
<path d="M1232 323.143L1190.86 282V312.857L1149.71 343.714H1190.86V364.286L1232 323.143Z" fill="#1755F4"/>
<path d="M1293.14 282L1252 323.143L1293.14 364.286V333.429L1334.29 302.571H1293.14V282Z" fill="#1755F4"/>
<path d="M1396 323.143L1354.86 282V312.857L1313.71 343.714H1354.86V364.286L1396 323.143Z" fill="#1755F4"/>
<path d="M1457.14 282L1416 323.143L1457.14 364.286V333.429L1498.29 302.571H1457.14V282Z" fill="#1755F4"/>
<path d="M1560 323.143L1518.86 282V312.857L1477.71 343.714H1518.86V364.286L1560 323.143Z" fill="#1755F4"/>
<path d="M1.99988 417.143L-39.1431 376V406.857L-80.2861 437.714H-39.1431V458.286L1.99988 417.143Z" fill="#1755F4"/>
<path d="M63.143 376L22 417.143L63.143 458.286V427.429L104.286 396.571H63.143V376Z" fill="#1755F4"/>
<path d="M166 417.143L124.857 376V406.857L83.7139 437.714H124.857V458.286L166 417.143Z" fill="#1755F4"/>
<path d="M227.143 376L186 417.143L227.143 458.286V427.429L268.286 396.571H227.143V376Z" fill="#1755F4"/>
<path d="M330 417.143L288.857 376V406.857L247.714 437.714H288.857V458.286L330 417.143Z" fill="#1755F4"/>
<path d="M391.143 376L350 417.143L391.143 458.286V427.429L432.286 396.571H391.143V376Z" fill="#1755F4"/>
<path d="M494 417.143L452.86 376V406.857L411.714 437.714H452.86V458.286L494 417.143Z" fill="#1755F4"/>
<path d="M555.14 376L514 417.143L555.14 458.286V427.429L596.29 396.571H555.14V376Z" fill="#1755F4"/>
<path d="M658 417.143L616.86 376V406.857L575.71 437.714H616.86V458.286L658 417.143Z" fill="#1755F4"/>
<path d="M719.14 376L678 417.143L719.14 458.286V427.429L760.29 396.571H719.14V376Z" fill="#1755F4"/>
<path d="M822 417.143L780.86 376V406.857L739.71 437.714H780.86V458.286L822 417.143Z" fill="#1755F4"/>
<path d="M883.14 376L842 417.143L883.14 458.286V427.429L924.29 396.571H883.14V376Z" fill="#1755F4"/>
<path d="M986 417.143L944.86 376V406.857L903.71 437.714H944.86V458.286L986 417.143Z" fill="#1755F4"/>
<path d="M1047.14 376L1006 417.143L1047.14 458.286V427.429L1088.29 396.571H1047.14V376Z" fill="#1755F4"/>
<path d="M1150 417.143L1108.86 376V406.857L1067.71 437.714H1108.86V458.286L1150 417.143Z" fill="#1755F4"/>
<path d="M1211.14 376L1170 417.143L1211.14 458.286V427.429L1252.29 396.571H1211.14V376Z" fill="#1755F4"/>
<path d="M1314 417.143L1272.86 376V406.857L1231.71 437.714H1272.86V458.286L1314 417.143Z" fill="#1755F4"/>
<path d="M1375.14 376L1334 417.143L1375.14 458.286V427.429L1416.29 396.571H1375.14V376Z" fill="#1755F4"/>
<path d="M1478 417.143L1436.86 376V406.857L1395.71 437.714H1436.86V458.286L1478 417.143Z" fill="#1755F4"/>
<path d="M1539.14 376L1498 417.143L1539.14 458.286V427.429L1580.29 396.571H1539.14V376Z" fill="#1755F4"/>
<path d="M-18.857 470L-60 511.143L-18.857 552.286V521.429L22.286 490.571H-18.857V470Z" fill="#1755F4"/>
<path d="M83.9999 511.143L42.8569 470V500.857L1.71387 531.714H42.8569V552.286L83.9999 511.143Z" fill="#1755F4"/>
<path d="M145.143 470L104 511.143L145.143 552.286V521.429L186.286 490.571H145.143V470Z" fill="#1755F4"/>
<path d="M248 511.143L206.857 470V500.857L165.714 531.714H206.857V552.286L248 511.143Z" fill="#1755F4"/>
<path d="M309.143 470L268 511.143L309.143 552.286V521.429L350.286 490.571H309.143V470Z" fill="#1755F4"/>
<path d="M412 511.143L370.857 470V500.857L329.714 531.714H370.857V552.286L412 511.143Z" fill="#1755F4"/>
<path d="M473.14 470L432 511.143L473.14 552.286V521.429L514.29 490.571H473.14V470Z" fill="#1755F4"/>
<path d="M576 511.143L534.86 470V500.857L493.71 531.714H534.86V552.286L576 511.143Z" fill="#1755F4"/>
<path d="M637.14 470L596 511.143L637.14 552.286V521.429L678.29 490.571H637.14V470Z" fill="#1755F4"/>
<path d="M740 511.143L698.86 470V500.857L657.71 531.714H698.86V552.286L740 511.143Z" fill="#1755F4"/>
<path d="M801.14 470L760 511.143L801.14 552.286V521.429L842.29 490.571H801.14V470Z" fill="#1755F4"/>
<path d="M904 511.143L862.86 470V500.857L821.71 531.714H862.86V552.286L904 511.143Z" fill="#1755F4"/>
<path d="M965.14 470L924 511.143L965.14 552.286V521.429L1006.29 490.571H965.14V470Z" fill="#1755F4"/>
<path d="M1068 511.143L1026.86 470V500.857L985.71 531.714H1026.86V552.286L1068 511.143Z" fill="#1755F4"/>
<path d="M1129.14 470L1088 511.143L1129.14 552.286V521.429L1170.29 490.571H1129.14V470Z" fill="#1755F4"/>
<path d="M1232 511.143L1190.86 470V500.857L1149.71 531.714H1190.86V552.286L1232 511.143Z" fill="#1755F4"/>
<path d="M1293.14 470L1252 511.143L1293.14 552.286V521.429L1334.29 490.571H1293.14V470Z" fill="#1755F4"/>
<path d="M1396 511.143L1354.86 470V500.857L1313.71 531.714H1354.86V552.286L1396 511.143Z" fill="#1755F4"/>
<path d="M1457.14 470L1416 511.143L1457.14 552.286V521.429L1498.29 490.571H1457.14V470Z" fill="#1755F4"/>
<path d="M1560 511.143L1518.86 470V500.857L1477.71 531.714H1518.86V552.286L1560 511.143Z" fill="#1755F4"/>
<path d="M1.99988 605.143L-39.1431 564V594.857L-80.2861 625.714H-39.1431V646.286L1.99988 605.143Z" fill="#1755F4"/>
<path d="M63.143 564L22 605.143L63.143 646.286V615.429L104.286 584.571H63.143V564Z" fill="#1755F4"/>
<path d="M166 605.143L124.857 564V594.857L83.7139 625.714H124.857V646.286L166 605.143Z" fill="#1755F4"/>
<path d="M227.143 564L186 605.143L227.143 646.286V615.429L268.286 584.571H227.143V564Z" fill="#1755F4"/>
<path d="M330 605.143L288.857 564V594.857L247.714 625.714H288.857V646.286L330 605.143Z" fill="#1755F4"/>
<path d="M391.143 564L350 605.143L391.143 646.286V615.429L432.286 584.571H391.143V564Z" fill="#1755F4"/>
<path d="M494 605.143L452.86 564V594.857L411.714 625.714H452.86V646.286L494 605.143Z" fill="#1755F4"/>
<path d="M555.14 564L514 605.143L555.14 646.286V615.429L596.29 584.571H555.14V564Z" fill="#1755F4"/>
<path d="M658 605.143L616.86 564V594.857L575.71 625.714H616.86V646.286L658 605.143Z" fill="#1755F4"/>
<path d="M719.14 564L678 605.143L719.14 646.286V615.429L760.29 584.571H719.14V564Z" fill="#1755F4"/>
<path d="M822 605.143L780.86 564V594.857L739.71 625.714H780.86V646.286L822 605.143Z" fill="#1755F4"/>
<path d="M883.14 564L842 605.143L883.14 646.286V615.429L924.29 584.571H883.14V564Z" fill="#1755F4"/>
<path d="M986 605.143L944.86 564V594.857L903.71 625.714H944.86V646.286L986 605.143Z" fill="#1755F4"/>
<path d="M1047.14 564L1006 605.143L1047.14 646.286V615.429L1088.29 584.571H1047.14V564Z" fill="#1755F4"/>
<path d="M1150 605.143L1108.86 564V594.857L1067.71 625.714H1108.86V646.286L1150 605.143Z" fill="#1755F4"/>
<path d="M1211.14 564L1170 605.143L1211.14 646.286V615.429L1252.29 584.571H1211.14V564Z" fill="#1755F4"/>
<path d="M1314 605.143L1272.86 564V594.857L1231.71 625.714H1272.86V646.286L1314 605.143Z" fill="#1755F4"/>
<path d="M1375.14 564L1334 605.143L1375.14 646.286V615.429L1416.29 584.571H1375.14V564Z" fill="#1755F4"/>
<path d="M1478 605.143L1436.86 564V594.857L1395.71 625.714H1436.86V646.286L1478 605.143Z" fill="#1755F4"/>
<path d="M1539.14 564L1498 605.143L1539.14 646.286V615.429L1580.29 584.571H1539.14V564Z" fill="#1755F4"/>
<path d="M-18.857 658L-60 699.143L-18.857 740.286V709.429L22.286 678.571H-18.857V658Z" fill="#1755F4"/>
<path d="M83.9999 699.143L42.8569 658V688.857L1.71387 719.714H42.8569V740.286L83.9999 699.143Z" fill="#1755F4"/>
<path d="M145.143 658L104 699.143L145.143 740.286V709.429L186.286 678.571H145.143V658Z" fill="#1755F4"/>
<path d="M248 699.143L206.857 658V688.857L165.714 719.714H206.857V740.286L248 699.143Z" fill="#1755F4"/>
<path d="M309.143 658L268 699.143L309.143 740.286V709.429L350.286 678.571H309.143V658Z" fill="#1755F4"/>
<path d="M412 699.143L370.857 658V688.857L329.714 719.714H370.857V740.286L412 699.143Z" fill="#1755F4"/>
<path d="M473.14 658L432 699.143L473.14 740.286V709.429L514.29 678.571H473.14V658Z" fill="#1755F4"/>
<path d="M576 699.143L534.86 658V688.857L493.71 719.714H534.86V740.286L576 699.143Z" fill="#1755F4"/>
<path d="M637.14 658L596 699.143L637.14 740.286V709.429L678.29 678.571H637.14V658Z" fill="#1755F4"/>
<path d="M740 699.143L698.86 658V688.857L657.71 719.714H698.86V740.286L740 699.143Z" fill="#1755F4"/>
<path d="M801.14 658L760 699.143L801.14 740.286V709.429L842.29 678.571H801.14V658Z" fill="#1755F4"/>
<path d="M904 699.143L862.86 658V688.857L821.71 719.714H862.86V740.286L904 699.143Z" fill="#1755F4"/>
<path d="M965.14 658L924 699.143L965.14 740.286V709.429L1006.29 678.571H965.14V658Z" fill="#1755F4"/>
<path d="M1068 699.143L1026.86 658V688.857L985.71 719.714H1026.86V740.286L1068 699.143Z" fill="#1755F4"/>
<path d="M1129.14 658L1088 699.143L1129.14 740.286V709.429L1170.29 678.571H1129.14V658Z" fill="#1755F4"/>
<path d="M1232 699.143L1190.86 658V688.857L1149.71 719.714H1190.86V740.286L1232 699.143Z" fill="#1755F4"/>
<path d="M1293.14 658L1252 699.143L1293.14 740.286V709.429L1334.29 678.571H1293.14V658Z" fill="#1755F4"/>
<path d="M1396 699.143L1354.86 658V688.857L1313.71 719.714H1354.86V740.286L1396 699.143Z" fill="#1755F4"/>
<path d="M1457.14 658L1416 699.143L1457.14 740.286V709.429L1498.29 678.571H1457.14V658Z" fill="#1755F4"/>
<path d="M1560 699.143L1518.86 658V688.857L1477.71 719.714H1518.86V740.286L1560 699.143Z" fill="#1755F4"/>
<path d="M1.99988 793.143L-39.1431 752V782.857L-80.2861 813.714H-39.1431V834.286L1.99988 793.143Z" fill="#1755F4"/>
<path d="M63.143 752L22 793.143L63.143 834.286V803.429L104.286 772.571H63.143V752Z" fill="#1755F4"/>
<path d="M166 793.143L124.857 752V782.857L83.7139 813.714H124.857V834.286L166 793.143Z" fill="#1755F4"/>
<path d="M227.143 752L186 793.143L227.143 834.286V803.429L268.286 772.571H227.143V752Z" fill="#1755F4"/>
<path d="M330 793.143L288.857 752V782.857L247.714 813.714H288.857V834.286L330 793.143Z" fill="#1755F4"/>
<path d="M391.143 752L350 793.143L391.143 834.286V803.429L432.286 772.571H391.143V752Z" fill="#1755F4"/>
<path d="M494 793.143L452.86 752V782.857L411.714 813.714H452.86V834.286L494 793.143Z" fill="#1755F4"/>
<path d="M555.14 752L514 793.143L555.14 834.286V803.429L596.29 772.571H555.14V752Z" fill="#1755F4"/>
<path d="M658 793.143L616.86 752V782.857L575.71 813.714H616.86V834.286L658 793.143Z" fill="#1755F4"/>
<path d="M719.14 752L678 793.143L719.14 834.286V803.429L760.29 772.571H719.14V752Z" fill="#1755F4"/>
<path d="M822 793.143L780.86 752V782.857L739.71 813.714H780.86V834.286L822 793.143Z" fill="#1755F4"/>
<path d="M883.14 752L842 793.143L883.14 834.286V803.429L924.29 772.571H883.14V752Z" fill="#1755F4"/>
<path d="M986 793.143L944.86 752V782.857L903.71 813.714H944.86V834.286L986 793.143Z" fill="#1755F4"/>
<path d="M1047.14 752L1006 793.143L1047.14 834.286V803.429L1088.29 772.571H1047.14V752Z" fill="#1755F4"/>
<path d="M1150 793.143L1108.86 752V782.857L1067.71 813.714H1108.86V834.286L1150 793.143Z" fill="#1755F4"/>
<path d="M1211.14 752L1170 793.143L1211.14 834.286V803.429L1252.29 772.571H1211.14V752Z" fill="#1755F4"/>
<path d="M1314 793.143L1272.86 752V782.857L1231.71 813.714H1272.86V834.286L1314 793.143Z" fill="#1755F4"/>
<path d="M1375.14 752L1334 793.143L1375.14 834.286V803.429L1416.29 772.571H1375.14V752Z" fill="#1755F4"/>
<path d="M1478 793.143L1436.86 752V782.857L1395.71 813.714H1436.86V834.286L1478 793.143Z" fill="#1755F4"/>
<path d="M1539.14 752L1498 793.143L1539.14 834.286V803.429L1580.29 772.571H1539.14V752Z" fill="#1755F4"/>
<path d="M-18.857 846L-60 887.143L-18.857 928.29V897.429L22.286 866.571H-18.857V846Z" fill="#1755F4"/>
<path d="M83.9999 887.143L42.8569 846V876.857L1.71387 907.71H42.8569V928.29L83.9999 887.143Z" fill="#1755F4"/>
<path d="M145.143 846L104 887.143L145.143 928.29V897.429L186.286 866.571H145.143V846Z" fill="#1755F4"/>
<path d="M248 887.143L206.857 846V876.857L165.714 907.71H206.857V928.29L248 887.143Z" fill="#1755F4"/>
<path d="M309.143 846L268 887.143L309.143 928.29V897.429L350.286 866.571H309.143V846Z" fill="#1755F4"/>
<path d="M412 887.143L370.857 846V876.857L329.714 907.71H370.857V928.29L412 887.143Z" fill="#1755F4"/>
<path d="M473.14 846L432 887.143L473.14 928.29V897.429L514.29 866.571H473.14V846Z" fill="#1755F4"/>
<path d="M576 887.143L534.86 846V876.857L493.71 907.71H534.86V928.29L576 887.143Z" fill="#1755F4"/>
<path d="M637.14 846L596 887.143L637.14 928.29V897.429L678.29 866.571H637.14V846Z" fill="#1755F4"/>
<path d="M740 887.143L698.86 846V876.857L657.71 907.71H698.86V928.29L740 887.143Z" fill="#1755F4"/>
<path d="M801.14 846L760 887.143L801.14 928.29V897.429L842.29 866.571H801.14V846Z" fill="#1755F4"/>
<path d="M904 887.143L862.86 846V876.857L821.71 907.71H862.86V928.29L904 887.143Z" fill="#1755F4"/>
<path d="M965.14 846L924 887.143L965.14 928.29V897.429L1006.29 866.571H965.14V846Z" fill="#1755F4"/>
<path d="M1068 887.143L1026.86 846V876.857L985.71 907.71H1026.86V928.29L1068 887.143Z" fill="#1755F4"/>
<path d="M1129.14 846L1088 887.143L1129.14 928.29V897.429L1170.29 866.571H1129.14V846Z" fill="#1755F4"/>
<path d="M1232 887.143L1190.86 846V876.857L1149.71 907.71H1190.86V928.29L1232 887.143Z" fill="#1755F4"/>
<path d="M1293.14 846L1252 887.143L1293.14 928.29V897.429L1334.29 866.571H1293.14V846Z" fill="#1755F4"/>
<path d="M1396 887.143L1354.86 846V876.857L1313.71 907.71H1354.86V928.29L1396 887.143Z" fill="#1755F4"/>
<path d="M1457.14 846L1416 887.143L1457.14 928.29V897.429L1498.29 866.571H1457.14V846Z" fill="#1755F4"/>
<path d="M1560 887.143L1518.86 846V876.857L1477.71 907.71H1518.86V928.29L1560 887.143Z" fill="#1755F4"/>
</g>
</svg>
